<?xml version="1.0" encoding="utf-8"?>
<!-- Generator: Adobe Illustrator 17.0.2, SVG Export Plug-In . SVG Version: 6.00 Build 0)  -->
<!DOCTYPE svg PUBLIC "-//W3C//DTD SVG 1.1//EN" "http://www.w3.org/Graphics/SVG/1.1/DTD/svg11.dtd">
<svg version="1.1" id="Layer_1" xmlns="http://www.w3.org/2000/svg" xmlns:xlink="http://www.w3.org/1999/xlink" x="0px" y="0px"
	 width="72.751px" height="73.574px" viewBox="0 0 72.751 73.574" enable-background="new 0 0 72.751 73.574" xml:space="preserve">
<polygon fill="#BFC1C1" points="72.729,12.59 62.981,9.209 53.55,12.479 51.403,15.919 45.821,3.301 36.364,0 26.645,3.387 
	26.661,20.689 22.232,19.161 19.354,12.454 9.561,9.129 0,12.447 0,61.044 9.791,64.424 19.404,61.126 22.259,54.481 26.544,53.047 
	26.536,70.116 36.328,73.574 45.988,70.263 51.347,57.773 53.286,61.139 62.926,64.429 72.748,60.988 72.751,13.309 "/>
<g>
	<g>
		<path fill="#EE3033" d="M36.324,72.468l-8.787-3.105c0.016-5.693,0.008-29.1,0.008-29.1l-0.154-0.034
			c0,0-7.588,12.531-8.649,14.317C18.674,54.473,9.83,34.222,9.83,34.222L9.813,63.326L1.03,60.295v-47.12l8.801,3.014l8.826,20.679
			L27.47,22.32l8.888,2.989L36.324,72.468z"/>
		<path fill="#431E75" d="M36.32,72.466c0.003-8.359,0.037-47.158,0.037-47.158l8.888-2.988v29.14l8.818-20.229l8.879,14.12v-28.99
			l8.758-3.038v46.919l-8.816,3.089L54.06,48.823l-8.834,20.591L36.32,72.466z"/>
		<polygon fill="#EE3033" points="62.943,16.361 62.946,45.355 54.064,31.232 45.246,28.182 45.246,27.644 54.182,13.324 		"/>
		<polygon fill="#C01F37" points="24.564,27.117 18.656,36.868 9.83,16.189 18.622,13.273 		"/>
		<polygon fill="#EE3033" points="27.663,22.255 27.663,4.122 36.364,7.154 42.42,21.369 36.358,19.331 		"/>
		<polygon fill="#9F1C29" points="42.42,21.369 36.364,7.154 45.064,4.128 51.227,18.06 45.246,27.644 45.246,22.318 		"/>
		<polygon fill="#431E75" points="9.813,63.326 9.83,34.222 18.742,54.546 21.523,53.646 18.67,60.288 		"/>
		<path fill="#00AEEF" d="M51.189,55.51c0.951-2.231,1.902-4.461,2.898-6.797l8.797,14.619l-8.947-3.055L51.189,55.51z"/>
		<polygon fill="#431E75" points="45.064,4.128 36.364,7.154 27.646,4.122 36.355,1.088 		"/>
		<polygon fill="#00AEEF" points="18.742,54.546 27.391,40.229 27.545,40.263 27.545,51.63 		"/>
		<polygon fill="#00AEEF" points="27.663,22.099 27.663,22.255 27.47,22.32 24.564,27.117 21.496,19.97 		"/>
		<path fill="#431E75" d="M9.585,10.205l-8.556,2.97c0.689,0.258,8.801,3.014,8.801,3.014s7.499-2.49,8.792-2.916L9.585,10.205z"/>
		<polygon fill="#00AEEF" points="45.246,28.182 54.065,31.231 45.246,51.46 		"/>
		<polygon fill="#00AEEF" points="45.246,22.32 36.358,25.308 27.47,22.32 36.358,19.331 		"/>
		<polygon fill="#00AEEF" points="62.943,16.361 54.182,13.324 62.943,10.286 71.703,13.324 		"/>
	</g>
</g>
</svg>
