<svg xmlns="http://www.w3.org/2000/svg" width="72.751" height="73.574" viewBox="0 0 72.751 73.574"><path fill="#BFC1C1" d="M72.729 12.59l-9.748-3.381-9.431 3.27-2.147 3.44-5.582-12.618-9.457-3.301-9.719 3.387.016 17.302-4.429-1.528-2.878-6.707-9.793-3.325-9.561 3.318v48.597l9.791 3.38 9.613-3.298 2.855-6.645 4.285-1.434-.008 17.069 9.792 3.458 9.66-3.311 5.359-12.49 1.939 3.366 9.64 3.29 9.822-3.441.003-47.679z"/><path fill="#EE3033" d="M36.324 72.468l-8.787-3.105c.016-5.693.008-29.1.008-29.1l-.154-.034s-7.588 12.531-8.649 14.317c-.068-.073-8.912-20.324-8.912-20.324l-.017 29.104-8.783-3.031v-47.12l8.801 3.014 8.826 20.679 8.813-14.548 8.888 2.989-.034 47.159z"/><path fill="#431E75" d="M36.32 72.466c.003-8.359.037-47.158.037-47.158l8.888-2.988v29.14l8.818-20.229 8.879 14.12v-28.99l8.758-3.038v46.919l-8.816 3.089-8.824-14.508-8.834 20.591-8.906 3.052z"/><path fill="#EE3033" d="M62.943 16.361l.003 28.994-8.882-14.123-8.818-3.05v-.538l8.936-14.32z"/><path fill="#C01F37" d="M24.564 27.117l-5.908 9.751-8.826-20.679 8.792-2.916z"/><path fill="#EE3033" d="M27.663 22.255v-18.133l8.701 3.032 6.056 14.215-6.062-2.038z"/><path fill="#9F1C29" d="M42.42 21.369l-6.056-14.215 8.7-3.026 6.163 13.932-5.981 9.584v-5.326z"/><path fill="#431E75" d="M9.813 63.326l.017-29.104 8.912 20.324 2.781-.9-2.853 6.642z"/><path fill="#00AEEF" d="M51.189 55.51l2.898-6.797 8.797 14.619-8.947-3.055-2.748-4.767z"/><path fill="#431E75" d="M45.064 4.128l-8.7 3.026-8.718-3.032 8.709-3.034z"/><path fill="#00AEEF" d="M18.742 54.546l8.649-14.317.154.034v11.367zM27.663 22.099v.156l-.193.065-2.906 4.797-3.068-7.147z"/><path fill="#431E75" d="M9.585 10.205l-8.556 2.97c.689.258 8.801 3.014 8.801 3.014s7.499-2.49 8.792-2.916l-9.037-3.068z"/><path fill="#00AEEF" d="M45.246 28.182l8.819 3.049-8.819 20.229zM45.246 22.32l-8.888 2.988-8.888-2.988 8.888-2.989zM62.943 16.361l-8.761-3.037 8.761-3.038 8.76 3.038z"/></svg>